<svg width="48" height="48" viewBox="0 0 1024 1024" xmlns="http://www.w3.org/2000/svg"><path d="M953.896874 813.0198449999999c0 22.754237-18.714224 41.11235-41.826618 41.332361l0 0.440022-816.086693 0 0-0.440022c-0.137123 0-0.24764000000000003 0-0.384763 0-23.303752 0-42.211381-18.467607-42.211381-41.332361 0-8.354272 2.556219-16.159028 6.8981069999999995-22.644743l-0.24764000000000003-0.109494 408.0709759999999-648.532583 0.220011 0.164752c7.5294870000000005-11.32186 20.500916-18.797112 35.313274-18.797112 15.361873000000001 0 28.690435999999995 8.134261 36.055171 20.171412l0.246617-0.164752 408.043347 648.477324-0.246617 0.220011C951.5616889999999 797.9598470000001 953.896874 805.2150880000002 953.896874 813.0198449999999zM559.923988 357.681332c0-30.504758-25.199938-55.237044999999995-56.28184099999999-55.237044999999995-31.081902 0-56.28184099999999 24.733311-56.28184099999999 55.237044999999995l0 206.93502599999997c0 30.503733999999998 25.199938 55.18281 56.28184099999999 55.18281 31.081902 0 56.28184099999999-24.679075999999995 56.28184099999999-55.18281L559.923988 357.681332zM503.642147 661.184741c-31.081902 0-56.28184099999999 24.733311-56.28184099999999 55.238069 0 30.421869999999995 25.199938 55.154157 56.28184099999999 55.154157 31.081902 0 56.28184099999999-24.733311 56.28184099999999-55.154157C559.923988 685.918052 534.724049 661.184741 503.642147 661.184741z" /></svg>
